<svg xmlns="http://www.w3.org/2000/svg" width="50" height="50" viewBox="0 0 50 50">
    <g fill="none" fill-rule="evenodd">
        <path fill="#FF7900" d="M0 50h50V0H0z"/>
        <path fill="#FFF" d="M17.047 43.696c0 .466.295.904.827.904.575 0 1.136-.24 1.696-.733v-1.65c-1.71.215-2.523.654-2.523 1.479zm2.568 1.463a4.103 4.103 0 0 1-2.302.692c-1.299 0-2.066-.864-2.066-2.022 0-1.557 1.431-2.383 4.383-2.716v-.387c0-.506-.384-.8-1.093-.8-.708 0-1.283.28-1.696.8l-1.24-.706c.65-.905 1.638-1.358 2.967-1.358 1.814 0 2.832.785 2.832 2.064 0 0-.003 5.032.001 5.045h-1.624l-.162-.612zM22.849 38.994l1.515-.21.167.827c.856-.626 1.535-.96 2.39-.96 1.432 0 2.17.76 2.17 2.264v4.846h-1.83v-4.527c0-.852-.221-1.238-.886-1.238-.546 0-1.091.253-1.711.772v4.993h-1.815v-6.767zM42.592 41.367c0-.932-.53-1.478-1.402-1.478-.826 0-1.343.533-1.416 1.478h2.818zm-1.373 4.526c-2.05 0-3.275-1.318-3.275-3.608 0-2.316 1.24-3.634 3.246-3.634 2.006 0 3.202 1.28 3.202 3.542 0 .12-.015.24-.015.36h-4.633c.015 1.317.561 1.982 1.64 1.982.691 0 1.15-.279 1.577-.89l1.342.743c-.59.986-1.652 1.505-3.084 1.505zM6.154 40.172c-1.367 0-1.62 1.233-1.62 2.125 0 .892.253 2.124 1.62 2.124s1.62-1.232 1.62-2.124c0-.892-.253-2.125-1.62-2.125m0 5.797c-1.81 0-3.443-1.154-3.443-3.672 0-2.519 1.633-3.673 3.443-3.673s3.443 1.154 3.443 3.673c0 2.518-1.632 3.672-3.443 3.672M10.852 38.807h1.742v.82c.33-.442 1.15-.963 1.918-.963.073 0 .162 0 .236.014v1.717h-.088c-.797 0-1.668.123-1.949.742v4.628h-1.859v-6.958zM36.84 38.782v6.59c0 1.162-.088 3.076-3.405 3.097-1.368.01-2.636-.538-2.89-1.732l1.808-.29c.076.34.285.682 1.31.682.949 0 1.405-.455 1.405-1.543v-.809l-.025-.025c-.291.518-.734 1.011-1.797 1.011-1.621 0-2.9-1.125-2.9-3.477 0-2.327 1.317-3.629 2.798-3.63 1.387-.003 1.904.63 2.02.962l-.02-.003.15-.833h1.546zm-3.266 5.49c1.39-.01 1.507-1.425 1.507-2.348 0-1.087-.532-1.972-1.52-1.972-.658 0-1.391.48-1.391 2.048 0 .86.06 2.282 1.404 2.271zM48.108 38.468h-.38v-1.92h-.012l-.753 1.92h-.239l-.754-1.92h-.01v1.92h-.38v-2.3h.586l.686 1.747.675-1.746h.581v2.299zm-2.998-1.993h-.719v1.993h-.38v-1.993h-.719v-.306h1.818v.306z"/>
    </g>
</svg>
